<?xml version="1.0" encoding="utf-8"?>
<!-- Generator: Adobe Illustrator 15.1.0, SVG Export Plug-In . SVG Version: 6.00 Build 0)  -->
<!DOCTYPE svg PUBLIC "-//W3C//DTD SVG 1.1//EN" "http://www.w3.org/Graphics/SVG/1.1/DTD/svg11.dtd">
<svg version="1.1" xmlns="http://www.w3.org/2000/svg" xmlns:xlink="http://www.w3.org/1999/xlink" x="0px" y="0px" width="159px"
	 height="30.237px" viewBox="0 0 159 30.237" enable-background="new 0 0 159 30.237" xml:space="preserve">
<g id="レイヤー_3">
	<path fill="#00AAFF" d="M33.824,17.495c-0.155-4.19-3.469-7.541-7.546-7.541c-0.677,0-1.332,0.102-1.957,0.275
		c-1.996-2.998-5.331-4.963-9.108-4.963c-6.11,0-11.064,5.14-11.064,11.48c0,0.314,0.015,0.625,0.04,0.934
		C1.753,18.557,0,20.953,0,23.779c0,3.566,2.787,6.458,6.224,6.458h26.187c3.437,0,6.224-2.892,6.224-6.458
		C38.634,20.718,36.58,18.16,33.824,17.495z"/>
	<g>
		<path fill="#FFFFFF" d="M18.29,24.73c-0.332,0.166-1.042,0.344-1.945,0.344c-2.643,0-4.107-1.864-4.107-4.57
			c0-3.193,1.979-4.808,4.313-4.808c0.95,0,1.567,0.202,1.819,0.344l-0.332,1.425c-0.343-0.154-0.801-0.297-1.407-0.297
			c-1.453,0-2.62,1.033-2.62,3.241c0,2.066,1.018,3.17,2.608,3.17c0.526,0,1.087-0.107,1.43-0.261L18.29,24.73z"/>
		<path fill="#FFFFFF" d="M26.192,24.956h-1.899l-0.79-1.769c-0.297-0.629-0.503-1.116-0.72-1.662h-0.035
			c-0.183,0.546-0.389,1.044-0.652,1.674l-0.721,1.757h-1.853l2.277-4.642l-2.197-4.487h1.887l0.79,1.792
			c0.229,0.522,0.4,0.985,0.606,1.496h0.022c0.206-0.57,0.355-0.985,0.572-1.507l0.744-1.781h1.865l-2.253,4.476L26.192,24.956z"/>
	</g>
</g>
<g id="レイヤー_1">
	<g>
		<path fill="#424242" d="M50.465,28.865c-1.401-3.728-2.81-7.457-4.226-11.186c-1.416-3.728-2.961-7.504-4.636-11.328
			c0.396,0.064,0.777,0.119,1.142,0.166c0.366,0.047,0.746,0.071,1.142,0.071c0.334,0,0.669-0.024,1.005-0.071
			c0.335-0.047,0.669-0.102,1.005-0.166c0.943,3.128,1.971,6.202,3.083,9.219c1.112,3.018,2.353,6.107,3.723,9.266
			c0.609-1.295,1.21-2.693,1.805-4.195c0.594-1.5,1.188-3.057,1.781-4.668c0.594-1.612,1.172-3.23,1.736-4.858
			c0.562-1.627,1.119-3.215,1.667-4.764c0.548,0.159,1.02,0.237,1.416,0.237c0.396,0,0.868-0.079,1.416-0.237
			c-1.645,3.824-3.259,7.6-4.842,11.328c-1.584,3.729-3.031,7.458-4.34,11.186c-0.457-0.063-0.929-0.095-1.416-0.095
			C51.44,28.771,50.952,28.802,50.465,28.865z"/>
		<path fill="#424242" d="M72.94,0c-0.091,1.201-0.16,2.378-0.206,3.531c-0.045,1.154-0.099,2.315-0.16,3.483
			c0.335,0,0.959-0.007,1.873-0.023c0.914-0.016,1.903-0.055,2.969-0.119c-0.03,0.095-0.045,0.269-0.045,0.521v0.474v0.521
			c0,0.222,0.015,0.379,0.045,0.474c-0.396-0.031-0.807-0.055-1.233-0.071c-0.427-0.016-0.884-0.024-1.371-0.024h-2.238
			c-0.031,0.126-0.068,0.632-0.114,1.517c-0.045,0.885-0.084,1.936-0.114,3.152s-0.054,2.488-0.068,3.815
			c-0.016,1.327-0.023,2.512-0.023,3.555c0,0.885,0.023,1.754,0.068,2.607s0.19,1.62,0.434,2.299
			c0.244,0.68,0.609,1.225,1.096,1.635c0.487,0.411,1.188,0.616,2.102,0.616c0.243,0,0.571-0.031,0.982-0.095
			c0.411-0.063,0.769-0.143,1.074-0.237v1.138c-0.518,0.095-1.089,0.213-1.713,0.355c-0.625,0.142-1.227,0.213-1.805,0.213
			c-1.918,0-3.334-0.49-4.248-1.469c-0.914-0.979-1.37-2.417-1.37-4.313c0-0.853,0.014-1.777,0.045-2.772
			c0.03-0.996,0.068-2.086,0.114-3.271c0.046-1.185,0.084-2.496,0.115-3.934c0.03-1.438,0.045-3.041,0.045-4.811h-1.461
			c-0.245,0-0.503,0.008-0.777,0.024c-0.274,0.016-0.564,0.04-0.868,0.071c0.03-0.189,0.053-0.371,0.069-0.545
			c0.015-0.173,0.022-0.355,0.022-0.545c0-0.158-0.007-0.316-0.022-0.474c-0.016-0.158-0.039-0.315-0.069-0.474
			c1.371,0.095,2.375,0.142,3.015,0.142c-0.031-0.631-0.054-1.422-0.069-2.37c-0.015-0.948-0.053-1.927-0.114-2.939L72.712,0H72.94z
			"/>
		<path fill="#424242" d="M80.522,18.343c0-3.886,0.891-6.936,2.672-9.147c1.783-2.211,4.378-3.318,7.79-3.318
			c1.613,0,3.006,0.261,4.179,0.782c1.173,0.521,2.155,1.217,2.947,2.085c0.791,0.87,1.378,1.889,1.758,3.058
			c0.381,1.169,0.57,2.417,0.57,3.744c0,0.316-0.007,0.625-0.022,0.924c-0.015,0.301-0.037,0.609-0.067,0.924
			c-1.646-0.031-3.273-0.063-4.889-0.095c-1.615-0.031-3.243-0.047-4.887-0.047c-1.005,0-2.002,0.016-2.992,0.047
			c-0.99,0.032-1.988,0.063-2.993,0.095c-0.03,0.159-0.045,0.396-0.045,0.711v0.616c0,1.232,0.175,2.386,0.525,3.46
			c0.35,1.075,0.859,1.999,1.53,2.773c0.67,0.774,1.492,1.391,2.468,1.849c0.973,0.458,2.101,0.687,3.38,0.687
			c0.608,0,1.233-0.086,1.871-0.261c0.641-0.173,1.265-0.41,1.873-0.711c0.61-0.3,1.181-0.655,1.715-1.066
			c0.531-0.41,0.996-0.853,1.393-1.327l0.229,0.142L99.25,26.59c-0.913,0.758-2.048,1.406-3.403,1.943
			c-1.355,0.537-2.763,0.806-4.224,0.806c-1.646,0-3.146-0.261-4.501-0.782c-1.354-0.521-2.527-1.28-3.516-2.275
			c-0.991-0.996-1.752-2.172-2.285-3.531C80.789,21.393,80.522,19.923,80.522,18.343z M91.074,7.394
			c-1.125,0-2.078,0.269-2.854,0.806c-0.777,0.538-1.417,1.208-1.92,2.015c-0.501,0.806-0.883,1.69-1.141,2.654
			c-0.26,0.964-0.42,1.872-0.48,2.725c0.943,0.032,1.926,0.064,2.946,0.095c1.021,0.032,2.018,0.047,2.993,0.047
			c1.005,0,2.025-0.015,3.061-0.047c1.035-0.031,2.038-0.063,3.014-0.095c0-0.853-0.068-1.753-0.205-2.702
			c-0.138-0.948-0.411-1.832-0.823-2.654c-0.41-0.821-0.98-1.5-1.713-2.038C93.221,7.663,92.261,7.394,91.074,7.394z"/>
		<path fill="#424242" d="M105.509,26.638c0-0.727,0.258-1.358,0.776-1.896c0.518-0.537,1.127-0.806,1.827-0.806
			s1.309,0.269,1.827,0.806c0.518,0.538,0.776,1.169,0.776,1.896c0,0.727-0.259,1.335-0.776,1.825
			c-0.519,0.49-1.127,0.735-1.827,0.735s-1.31-0.245-1.827-0.735C105.767,27.973,105.509,27.365,105.509,26.638z"/>
		<path fill="#424242" d="M116.38,17.679c0-2.054,0.335-3.823,1.006-5.309c0.67-1.485,1.545-2.709,2.626-3.673
			c1.081-0.963,2.322-1.674,3.724-2.133c1.4-0.458,2.832-0.687,4.294-0.687c1.674,0,3.174,0.213,4.499,0.64
			c1.324,0.427,2.276,0.909,2.854,1.446c-0.213,0.474-0.403,0.972-0.57,1.493c-0.168,0.521-0.313,1.066-0.434,1.635h-0.366
			c-0.214-0.41-0.503-0.829-0.868-1.256c-0.364-0.427-0.799-0.821-1.301-1.185c-0.503-0.363-1.06-0.664-1.668-0.9
			c-0.609-0.237-1.279-0.355-2.01-0.355c-1.37,0-2.551,0.261-3.54,0.782c-0.99,0.521-1.797,1.24-2.421,2.156
			c-0.625,0.917-1.081,1.999-1.37,3.247c-0.29,1.249-0.435,2.599-0.435,4.052c0,3.255,0.67,5.711,2.01,7.371
			c1.34,1.659,3.305,2.488,5.893,2.488c0.609,0,1.233-0.086,1.873-0.261c0.64-0.173,1.264-0.41,1.873-0.711
			c0.608-0.3,1.18-0.655,1.713-1.066c0.532-0.41,0.997-0.853,1.394-1.327l0.228,0.142c-0.152,0.758-0.243,1.533-0.273,2.323
			c-0.914,0.758-2.048,1.406-3.403,1.943c-1.355,0.537-2.764,0.806-4.225,0.806c-1.311,0-2.627-0.198-3.952-0.593
			c-1.324-0.395-2.52-1.058-3.586-1.991c-1.066-0.932-1.927-2.14-2.581-3.625S116.38,19.829,116.38,17.679z"/>
		<path fill="#424242" d="M149.134,15.215c1.096-1.517,2.169-2.994,3.22-4.432c1.051-1.438,2.078-2.915,3.084-4.432
			c0.273,0.064,0.54,0.119,0.799,0.166s0.525,0.071,0.799,0.071c0.366,0,0.883-0.079,1.554-0.237
			c-1.462,1.738-2.886,3.453-4.271,5.143s-2.764,3.389-4.134,5.095c1.37,2.085,2.794,4.147,4.271,6.186
			c1.477,2.038,2.991,4.068,4.545,6.09c-0.427-0.063-0.838-0.095-1.233-0.095c-0.396,0-0.762,0-1.097,0s-0.701,0-1.097,0
			s-0.806,0.031-1.232,0.095c-1.005-1.548-2.04-3.12-3.106-4.716c-1.066-1.595-2.147-3.2-3.243-4.811
			c-1.127,1.611-2.23,3.216-3.312,4.811c-1.08,1.596-2.139,3.168-3.175,4.716c-0.487-0.063-0.989-0.095-1.507-0.095
			c-0.548,0-1.065,0.031-1.554,0.095c1.463-1.769,2.894-3.562,4.295-5.379c1.4-1.817,2.786-3.673,4.156-5.569
			c-1.37-1.927-2.748-3.839-4.134-5.735c-1.387-1.896-2.81-3.839-4.271-5.83c0.426,0.064,0.829,0.119,1.21,0.166
			c0.38,0.047,0.784,0.071,1.21,0.071c0.427,0,0.83-0.024,1.212-0.071c0.38-0.047,0.783-0.102,1.21-0.166
			c0.883,1.517,1.805,2.995,2.764,4.432C147.055,12.221,148.068,13.698,149.134,15.215z"/>
	</g>
</g>
</svg>
