<?xml version="1.0" encoding="utf-8"?>
<!-- Generator: Adobe Illustrator 15.1.0, SVG Export Plug-In . SVG Version: 6.00 Build 0)  -->
<!DOCTYPE svg PUBLIC "-//W3C//DTD SVG 1.1//EN" "http://www.w3.org/Graphics/SVG/1.1/DTD/svg11.dtd">
<svg version="1.1" id="レイヤー_2" xmlns="http://www.w3.org/2000/svg" xmlns:xlink="http://www.w3.org/1999/xlink" x="0px"
	 y="0px" width="147px" height="15.599px" viewBox="0 0 147 15.599" enable-background="new 0 0 147 15.599" xml:space="preserve">
<g>
	<path d="M19.044,2.904h-2.252V1.049h2.252V2.904z M16.792,4.173h2.252v8.199h-2.252V4.173z"/>
	<path d="M21.454,4.173h2.142v1.522l0.031-0.302c0.105-0.254,0.248-0.187,0.428-0.403s0.386-0.402,0.619-0.555
		c0.232-0.153,0.483-0.272,0.753-0.356c0.27-0.085,0.542-0.127,0.816-0.127c0.169,0,0.333,0.026,0.492,0.079v2.093
		c-0.106-0.021-0.233-0.04-0.381-0.056c-0.148-0.016-0.291-0.023-0.429-0.023c-0.412,0-0.761,0.068-1.046,0.206
		c-0.286,0.137-0.516,0.325-0.689,0.563c-0.175,0.238-0.3,0.518-0.373,0.84c-0.074,0.323-0.111,0.664-0.111,1.023v3.695h-2.252
		V4.173z"/>
	<path d="M31.112,4.173h1.648V5.68h-1.648v4.06c0,0.381,0.062,0.634,0.189,0.761s0.381,0.19,0.762,0.19
		c0.254,0,0.486-0.021,0.697-0.063v1.76c-0.19,0.032-0.401,0.052-0.634,0.063c-0.232,0.01-0.46,0.016-0.682,0.016
		c-0.35,0-0.68-0.024-0.991-0.071c-0.312-0.048-0.587-0.143-0.825-0.286c-0.237-0.143-0.426-0.341-0.562-0.595
		c-0.138-0.253-0.206-0.586-0.206-0.999V5.68h-1.364V4.173h1.364V2.924l2.252-1.209V4.173z"/>
	<path d="M42.165,12.372h-2.142V11.23h-0.047c-0.285,0.465-0.656,0.809-1.11,1.031c-0.455,0.222-0.92,0.333-1.396,0.333
		c-0.603,0-1.097-0.082-1.482-0.246c-0.386-0.164-0.69-0.391-0.912-0.682c-0.222-0.291-0.378-0.645-0.468-1.062
		c-0.09-0.417-0.135-0.88-0.135-1.388V4.173h2.252v4.631c0,0.677,0.108,1.181,0.325,1.514s0.589,0.5,1.118,0.5
		c0.612,0,1.057-0.183,1.332-0.547c0.274-0.365,0.412-0.965,0.412-1.8V4.173h2.252V12.372z"/>
	<path d="M44.416,6.694c0.032-0.528,0.164-0.967,0.396-1.316c0.232-0.349,0.529-0.628,0.889-0.84
		c0.359-0.211,0.761-0.362,1.205-0.452c0.444-0.089,0.898-0.134,1.363-0.134c0.413,0,0.83,0.029,1.253,0.087
		s0.809,0.172,1.158,0.341c0.349,0.169,0.634,0.407,0.855,0.713c0.223,0.307,0.334,0.703,0.334,1.189v4.266
		c0,0.37,0.021,0.725,0.063,1.062c0.042,0.338,0.115,0.592,0.222,0.761h-2.283c-0.043-0.127-0.077-0.256-0.104-0.389
		c-0.026-0.132-0.045-0.267-0.056-0.404c-0.359,0.37-0.782,0.632-1.269,0.785c-0.486,0.153-0.983,0.23-1.49,0.23
		c-0.392,0-0.756-0.05-1.095-0.151c-0.339-0.1-0.634-0.251-0.888-0.452s-0.452-0.455-0.595-0.761
		c-0.144-0.307-0.214-0.671-0.214-1.094c0-0.465,0.079-0.849,0.237-1.15s0.37-0.542,0.634-0.722
		c0.265-0.179,0.563-0.314,0.896-0.404c0.333-0.09,0.674-0.162,1.023-0.214c0.349-0.053,0.682-0.095,0.998-0.127
		c0.317-0.032,0.601-0.079,0.849-0.143c0.249-0.063,0.447-0.155,0.595-0.277c0.148-0.122,0.223-0.299,0.223-0.532
		c0-0.243-0.04-0.436-0.119-0.579s-0.186-0.254-0.317-0.333s-0.285-0.132-0.46-0.159s-0.362-0.04-0.562-0.04
		c-0.434,0-0.78,0.095-1.039,0.286c-0.259,0.19-0.41,0.507-0.452,0.951H44.416z M49.618,8.359c-0.096,0.085-0.215,0.151-0.357,0.199
		c-0.143,0.047-0.296,0.087-0.46,0.119s-0.338,0.058-0.523,0.079c-0.185,0.021-0.361,0.048-0.531,0.079
		c-0.18,0.032-0.349,0.074-0.507,0.127c-0.158,0.053-0.299,0.125-0.421,0.214c-0.121,0.09-0.219,0.206-0.293,0.349
		c-0.074,0.143-0.111,0.314-0.111,0.515c0,0.212,0.037,0.383,0.111,0.516s0.175,0.237,0.302,0.317
		c0.127,0.079,0.274,0.135,0.443,0.167s0.344,0.048,0.523,0.048c0.444,0,0.787-0.074,1.031-0.222
		c0.243-0.148,0.423-0.325,0.539-0.531s0.188-0.415,0.214-0.626s0.04-0.381,0.04-0.507V8.359z"/>
	<path d="M54.312,1.049h2.252v11.323h-2.252V1.049z"/>
</g>
<g>
	<path d="M64,3.261h-3.394V1.168h9.277v2.093h-3.395v9.229H64V3.261z"/>
	<path d="M72.484,8.938c0.031,0.719,0.216,1.245,0.555,1.578c0.338,0.333,0.824,0.499,1.459,0.499c0.454,0,0.846-0.113,1.174-0.341
		c0.327-0.227,0.528-0.468,0.603-0.721h1.982c-0.317,0.973-0.804,1.675-1.459,2.109c-0.656,0.434-1.449,0.65-2.379,0.65
		c-0.646,0-1.227-0.106-1.745-0.317c-0.518-0.211-0.956-0.507-1.315-0.888c-0.359-0.38-0.638-0.835-0.833-1.364
		c-0.195-0.528-0.293-1.11-0.293-1.744c0-0.613,0.1-1.184,0.301-1.713c0.201-0.528,0.486-0.986,0.856-1.372s0.812-0.69,1.324-0.912
		c0.513-0.222,1.081-0.333,1.705-0.333c0.697,0,1.306,0.135,1.823,0.404c0.519,0.27,0.944,0.632,1.277,1.086
		c0.332,0.455,0.573,0.973,0.721,1.554c0.148,0.582,0.201,1.189,0.159,1.824H72.484z M76.147,7.511
		c-0.105-0.571-0.294-1.004-0.563-1.3s-0.679-0.444-1.229-0.444c-0.359,0-0.658,0.061-0.896,0.183
		c-0.237,0.122-0.428,0.272-0.57,0.452c-0.143,0.18-0.243,0.37-0.302,0.571c-0.058,0.201-0.093,0.38-0.103,0.539H76.147z"/>
	<path d="M84.996,7.178c-0.148-0.941-0.703-1.412-1.665-1.412c-0.359,0-0.661,0.082-0.904,0.246
		c-0.243,0.164-0.441,0.375-0.595,0.634s-0.262,0.547-0.325,0.864c-0.062,0.317-0.095,0.624-0.095,0.92s0.032,0.597,0.095,0.904
		c0.063,0.307,0.167,0.584,0.31,0.833s0.336,0.452,0.579,0.61c0.243,0.159,0.539,0.238,0.888,0.238c0.528,0,0.941-0.15,1.237-0.452
		s0.48-0.706,0.555-1.213h2.173c-0.148,1.089-0.571,1.922-1.269,2.498c-0.698,0.576-1.592,0.864-2.681,0.864
		c-0.624,0-1.189-0.103-1.696-0.309c-0.508-0.207-0.941-0.497-1.301-0.873s-0.64-0.819-0.84-1.332
		C79.261,9.687,79.16,9.124,79.16,8.51c0-0.634,0.093-1.224,0.277-1.769c0.186-0.544,0.457-1.015,0.817-1.411
		c0.358-0.396,0.798-0.706,1.315-0.928c0.519-0.222,1.11-0.333,1.776-0.333c0.486,0,0.954,0.063,1.403,0.19s0.849,0.32,1.197,0.579
		c0.35,0.259,0.637,0.584,0.864,0.975S87.169,6.66,87.2,7.178H84.996z"/>
	<path d="M88.517,1.168h2.252v4.266h0.048c0.285-0.465,0.649-0.809,1.094-1.031c0.444-0.222,0.877-0.333,1.3-0.333
		c0.604,0,1.097,0.082,1.483,0.246c0.386,0.164,0.689,0.391,0.912,0.682c0.222,0.291,0.378,0.645,0.468,1.062
		c0.089,0.418,0.135,0.88,0.135,1.388v5.043h-2.252V7.86c0-0.677-0.108-1.182-0.325-1.515s-0.59-0.5-1.118-0.5
		c-0.613,0-1.058,0.183-1.332,0.547c-0.275,0.365-0.412,0.965-0.412,1.8v4.297h-2.252V1.168z"/>
	<path d="M97.92,4.292h2.142v1.142h0.047c0.285-0.465,0.655-0.809,1.11-1.031c0.454-0.222,0.92-0.333,1.396-0.333
		c0.603,0,1.097,0.082,1.482,0.246s0.69,0.391,0.912,0.682c0.222,0.291,0.378,0.645,0.468,1.062c0.09,0.418,0.135,0.88,0.135,1.388
		v5.043h-2.252V7.86c0-0.677-0.108-1.182-0.325-1.515s-0.59-0.5-1.118-0.5c-0.613,0-1.058,0.183-1.332,0.547
		c-0.274,0.365-0.412,0.965-0.412,1.8v4.297H97.92V4.292z"/>
	<path d="M106.753,8.399c0-0.656,0.101-1.25,0.301-1.784c0.201-0.534,0.486-0.989,0.856-1.364s0.814-0.666,1.333-0.872
		c0.518-0.207,1.099-0.31,1.744-0.31c0.645,0,1.229,0.103,1.752,0.31c0.523,0.206,0.97,0.497,1.34,0.872s0.655,0.83,0.856,1.364
		s0.302,1.128,0.302,1.784c0,0.655-0.101,1.248-0.302,1.776c-0.201,0.529-0.486,0.98-0.856,1.356s-0.816,0.666-1.34,0.873
		c-0.523,0.206-1.107,0.309-1.752,0.309c-0.646,0-1.227-0.103-1.744-0.309c-0.519-0.207-0.963-0.497-1.333-0.873
		s-0.655-0.827-0.856-1.356C106.854,9.647,106.753,9.055,106.753,8.399z M109.005,8.399c0,0.328,0.031,0.647,0.095,0.959
		c0.063,0.312,0.172,0.592,0.325,0.84c0.153,0.249,0.357,0.447,0.61,0.594c0.254,0.148,0.571,0.222,0.952,0.222
		c0.38,0,0.7-0.074,0.959-0.222c0.259-0.147,0.465-0.346,0.618-0.594c0.153-0.248,0.262-0.529,0.325-0.84
		c0.063-0.312,0.096-0.632,0.096-0.959s-0.032-0.65-0.096-0.967c-0.063-0.317-0.172-0.598-0.325-0.841s-0.359-0.441-0.618-0.595
		c-0.259-0.153-0.579-0.23-0.959-0.23c-0.381,0-0.698,0.077-0.952,0.23c-0.253,0.154-0.457,0.352-0.61,0.595
		s-0.262,0.523-0.325,0.841C109.036,7.749,109.005,8.072,109.005,8.399z"/>
	<path d="M116.441,1.168h2.252v11.323h-2.252V1.168z"/>
	<path d="M119.898,8.399c0-0.656,0.101-1.25,0.302-1.784s0.486-0.989,0.856-1.364s0.813-0.666,1.332-0.872
		c0.518-0.207,1.1-0.31,1.744-0.31s1.229,0.103,1.753,0.31c0.522,0.206,0.97,0.497,1.34,0.872c0.369,0.375,0.655,0.83,0.855,1.364
		c0.201,0.534,0.302,1.128,0.302,1.784c0,0.655-0.101,1.248-0.302,1.776c-0.2,0.529-0.486,0.98-0.855,1.356
		c-0.37,0.375-0.817,0.666-1.34,0.873c-0.523,0.206-1.108,0.309-1.753,0.309s-1.227-0.103-1.744-0.309
		c-0.519-0.207-0.962-0.497-1.332-0.873s-0.655-0.827-0.856-1.356C119.999,9.647,119.898,9.055,119.898,8.399z M122.15,8.399
		c0,0.328,0.032,0.647,0.096,0.959c0.063,0.312,0.172,0.592,0.325,0.84c0.152,0.249,0.356,0.447,0.61,0.594
		c0.254,0.148,0.571,0.222,0.951,0.222c0.381,0,0.7-0.074,0.96-0.222c0.259-0.147,0.465-0.346,0.618-0.594
		c0.153-0.248,0.262-0.529,0.325-0.84c0.063-0.312,0.095-0.632,0.095-0.959s-0.031-0.65-0.095-0.967
		c-0.063-0.317-0.172-0.598-0.325-0.841s-0.359-0.441-0.618-0.595c-0.26-0.153-0.579-0.23-0.96-0.23c-0.38,0-0.697,0.077-0.951,0.23
		c-0.254,0.154-0.458,0.352-0.61,0.595c-0.153,0.243-0.262,0.523-0.325,0.841C122.183,7.749,122.15,8.072,122.15,8.399z"/>
	<path d="M137.724,11.967c0,0.222-0.02,0.468-0.056,0.737c-0.037,0.27-0.108,0.54-0.214,0.809c-0.106,0.27-0.254,0.528-0.444,0.777
		s-0.444,0.47-0.761,0.666c-0.318,0.195-0.704,0.352-1.158,0.468c-0.455,0.116-0.994,0.174-1.617,0.174
		c-0.402,0-0.812-0.05-1.229-0.15c-0.418-0.101-0.798-0.256-1.142-0.468c-0.344-0.212-0.629-0.484-0.856-0.817
		s-0.356-0.732-0.389-1.197h2.252c0.105,0.423,0.311,0.716,0.616,0.88c0.305,0.164,0.657,0.246,1.057,0.246
		c0.621,0,1.079-0.19,1.374-0.571s0.437-0.867,0.426-1.459v-1.078h-0.031c-0.243,0.433-0.59,0.753-1.039,0.959
		s-0.923,0.309-1.419,0.309c-0.613,0-1.142-0.108-1.586-0.325c-0.443-0.217-0.809-0.513-1.094-0.888
		c-0.286-0.375-0.495-0.814-0.627-1.316c-0.132-0.502-0.198-1.033-0.198-1.593c0-0.529,0.077-1.039,0.23-1.531
		c0.152-0.491,0.377-0.925,0.674-1.3c0.296-0.375,0.663-0.674,1.102-0.896c0.438-0.222,0.944-0.333,1.515-0.333
		c0.539,0,1.013,0.101,1.419,0.301c0.407,0.201,0.748,0.539,1.023,1.015h0.031V4.292h2.142V11.967z M133.663,10.556
		c0.317,0,0.598-0.063,0.841-0.19s0.444-0.296,0.603-0.507c0.159-0.211,0.278-0.452,0.357-0.722s0.118-0.552,0.118-0.849
		c0-0.328-0.031-0.645-0.095-0.952c-0.063-0.306-0.17-0.576-0.317-0.809c-0.147-0.232-0.347-0.417-0.595-0.555
		s-0.553-0.207-0.912-0.207c-0.316,0-0.589,0.063-0.816,0.19s-0.418,0.299-0.57,0.515c-0.153,0.217-0.265,0.465-0.334,0.746
		c-0.068,0.28-0.103,0.574-0.103,0.88c0,0.296,0.029,0.59,0.087,0.88c0.059,0.291,0.159,0.553,0.302,0.785
		c0.143,0.233,0.33,0.423,0.563,0.571C133.024,10.482,133.314,10.556,133.663,10.556z"/>
	<path d="M143.575,13.521c-0.244,0.656-0.582,1.128-1.016,1.419c-0.434,0.291-1.036,0.436-1.808,0.436
		c-0.232,0-0.463-0.008-0.689-0.024c-0.228-0.016-0.458-0.035-0.69-0.056v-1.855c0.212,0.021,0.429,0.042,0.65,0.063
		c0.222,0.021,0.444,0.026,0.666,0.016c0.19-0.021,0.352-0.082,0.483-0.183c0.133-0.1,0.23-0.225,0.294-0.373
		c0.063-0.148,0.095-0.307,0.095-0.476c0-0.18-0.031-0.349-0.095-0.508l-2.887-7.691h2.411l1.855,5.614h0.031l1.792-5.614H147
		L143.575,13.521z"/>
</g>
<g>
	<path fill="#004099" d="M8.279,0.448C8.426,0.202,8.312,0,8.024,0H0.322C0.035,0-0.082,0.204,0.062,0.452L3.846,7.02
		c0.143,0.249,0.38,0.25,0.526,0.003L8.279,0.448z"/>
	<path d="M11.312,0c-0.46,0-0.46,0-0.789,0.448L5.469,8.926c-0.146,0.246-0.248,0.519-0.007,0.9l1.776,3.083
		c0.144,0.249,0.379,0.25,0.524,0.002L15.09,0.45C15.235,0.202,15.12,0,14.833,0H11.312z"/>
</g>
</svg>
